<?xml version="1.0" encoding="utf-8" ?>
<svg baseProfile="tiny" height="1024" version="1.2" width="1024" xmlns="http://www.w3.org/2000/svg" xmlns:ev="http://www.w3.org/2001/xml-events" xmlns:xlink="http://www.w3.org/1999/xlink"><defs /><path d="M 432,222 L 432,223 L 431,224 L 431,225 L 430,226 L 430,228 L 429,229 L 429,230 L 428,231 L 428,232 L 427,233 L 427,235 L 426,236 L 426,237 L 425,238 L 425,239 L 424,240 L 424,241 L 423,242 L 423,244 L 422,245 L 422,246 L 421,247 L 421,248 L 420,249 L 420,251 L 419,252 L 419,253 L 418,254 L 418,255 L 417,256 L 417,258 L 416,259 L 416,260 L 415,261 L 415,262 L 414,263 L 414,265 L 413,266 L 413,267 L 412,268 L 412,269 L 411,270 L 411,272 L 410,273 L 410,274 L 409,275 L 409,276 L 408,277 L 408,279 L 407,280 L 407,281 L 406,282 L 406,283 L 405,284 L 405,285 L 404,286 L 404,288 L 403,289 L 403,290 L 402,291 L 402,292 L 401,293 L 401,295 L 400,296 L 400,297 L 399,298 L 399,299 L 398,300 L 398,302 L 397,303 L 397,304 L 396,305 L 396,306 L 395,307 L 395,308 L 394,309 L 394,311 L 393,312 L 393,313 L 392,314 L 392,315 L 391,316 L 391,318 L 390,319 L 390,320 L 389,321 L 389,322 L 388,323 L 388,324 L 387,325 L 387,327 L 386,328 L 386,329 L 385,330 L 385,331 L 384,332 L 384,333 L 383,334 L 383,336 L 382,337 L 382,338 L 381,339 L 381,340 L 380,341 L 380,343 L 379,344 L 379,345 L 378,346 L 378,347 L 377,348 L 377,349 L 376,350 L 376,352 L 375,353 L 375,354 L 374,355 L 374,356 L 373,357 L 373,358 L 372,359 L 372,361 L 371,362 L 371,363 L 370,364 L 370,365 L 369,366 L 369,367 L 368,368 L 368,370 L 367,371 L 367,372 L 366,373 L 366,374 L 365,375 L 365,376 L 364,377 L 364,379 L 363,380 L 363,381 L 362,382 L 362,383 L 361,384 L 361,386 L 360,387 L 360,388 L 359,389 L 359,390 L 358,391 L 358,392 L 357,393 L 357,395 L 356,396 L 356,397 L 355,398 L 355,399 L 354,400 L 354,402 L 353,403 L 353,404 L 352,405 L 352,406 L 351,407 L 351,408 L 350,409 L 350,411 L 349,412 L 349,413 L 348,414 L 348,415 L 347,416 L 347,418 L 346,419 L 346,420 L 345,421 L 345,422 L 344,423 L 344,424 L 343,425 L 343,427 L 342,428 L 342,429 L 341,430 L 341,431 L 340,432 L 340,434 L 339,435 L 339,436 L 338,437 L 338,438 L 337,439 L 337,440 L 336,441 L 336,443 L 335,444 L 335,445 L 334,446 L 334,447 L 333,448 L 333,449 L 332,450 L 332,452 L 331,453 L 331,454 L 330,455 L 330,456 L 329,457 L 329,459 L 328,460 L 328,461 L 327,462 L 327,463 L 326,464 L 326,465 L 325,466 L 325,468 L 324,469 L 324,470 L 323,471 L 323,472 L 322,473 L 322,474 L 321,475 L 321,477 L 320,478 L 320,479 L 319,480 L 319,481 L 318,482 L 318,483 L 317,484 L 317,486 L 316,487 L 316,488 L 315,489 L 315,490 L 314,491 L 314,493 L 313,494 L 313,495 L 312,496 L 312,497 L 311,498 L 311,499 L 310,500 L 310,502 L 309,503 L 309,504 L 308,505 L 308,506 L 307,507 L 307,508 L 306,509 L 306,511 L 305,512 L 305,513 L 304,514 L 304,515 L 303,516 L 303,518 L 302,519 L 302,520 L 301,521 L 301,522 L 300,523 L 300,524 L 299,525 L 299,527 L 298,528 L 298,529 L 297,530 L 297,531 L 296,532 L 296,534 L 295,535 L 295,536 L 294,537 L 294,538 L 293,539 L 293,540 L 292,541 L 292,543 L 291,544 L 291,545 L 290,546 L 290,547 L 289,548 L 289,549 L 288,550 L 288,552 L 287,553 L 287,554 L 286,555 L 286,556 L 285,557 L 285,558 L 284,559 L 284,561 L 283,562 L 283,563 L 282,564 L 282,565 L 281,566 L 281,568 L 280,569 L 280,570 L 279,571 L 279,572 L 278,573 L 278,574 L 277,575 L 277,577 L 276,578 L 276,579 L 275,580 L 275,581 L 274,582 L 274,584 L 273,585 L 273,586 L 272,587 L 272,588 L 271,589 L 271,591 L 270,592 L 270,593 L 269,594 L 269,595 L 268,596 L 268,597 L 267,598 L 267,600 L 266,601 L 266,602 L 265,603 L 265,604 L 264,605 L 264,606 L 263,607 L 263,609 L 262,610 L 262,611 L 261,612 L 261,613 L 260,614 L 260,615 L 259,616 L 259,618 L 258,619 L 258,620 L 257,621 L 257,622 L 256,623 L 256,625 L 255,626 L 255,627 L 254,628 L 254,629 L 253,630 L 253,632 L 252,633 L 252,634 L 251,635 L 251,636 L 250,637 L 250,638 L 249,639 L 249,641 L 248,642 L 248,643 L 247,644 L 247,645 L 246,646 L 246,647 L 245,648 L 245,650 L 244,651 L 244,652 L 243,653 L 243,654 L 242,655 L 242,657 L 241,658 L 241,659 L 240,660 L 240,661 L 239,662 L 239,663 L 238,664 L 238,666 L 237,667 L 237,668 L 236,669 L 236,670 L 235,671 L 235,672 L 234,673 L 234,675 L 233,676 L 233,677 L 232,678 L 232,679 L 231,680 L 231,682 L 230,683 L 230,684 L 229,685 L 229,686 L 228,687 L 228,688 L 227,689 L 227,691 L 226,692 L 226,693 L 225,694 L 225,695 L 224,696 L 224,697 L 223,698 L 223,700 L 222,701 L 222,702 L 221,703 L 221,704 L 220,705 L 220,707 L 219,708 L 219,709 L 218,710 L 218,711 L 217,712 L 217,713 L 216,714 L 216,716 L 215,717 L 215,718 L 214,719 L 214,720 L 213,721 L 213,723 L 212,724 L 212,725 L 211,726 L 211,727 L 210,728 L 210,729 L 209,730 L 209,732 L 208,733 L 208,734 L 207,735 L 207,736 L 206,737 L 206,738 L 205,739 L 205,741 L 204,742 L 204,743 L 203,744 L 203,745 L 202,746 L 202,748 L 201,749 L 201,750 L 200,751 L 200,752 L 199,753 L 199,754 L 198,755 L 198,757 L 197,758 L 197,759 L 196,760 L 196,761 L 195,762 L 195,763 L 194,764 L 194,766 L 193,767 L 193,768 L 192,769 L 192,770 L 191,771 L 191,773 L 190,774 L 190,775 L 189,776 L 189,777 L 188,778 L 188,779 L 187,780 L 187,782 L 186,783 L 186,784 L 185,785 L 185,786 L 184,787 L 184,789 L 183,790 L 183,791 L 182,792 L 182,793 L 181,794 L 181,796 L 180,797 L 180,798 L 179,799 L 179,800 L 178,801 L 178,802 L 429,802 L 429,788 L 428,787 L 428,613 L 429,612 L 429,607 L 430,606 L 430,602 L 431,601 L 431,598 L 432,597 L 432,595 L 433,594 L 433,592 L 434,591 L 434,590 L 435,589 L 435,588 L 436,587 L 436,586 L 437,585 L 437,584 L 438,583 L 438,582 L 439,581 L 439,580 L 441,578 L 441,577 L 443,575 L 443,574 L 445,572 L 445,571 L 460,556 L 461,556 L 464,553 L 465,553 L 467,551 L 468,551 L 469,550 L 470,550 L 472,548 L 473,548 L 474,547 L 475,547 L 476,546 L 478,546 L 479,545 L 480,545 L 481,544 L 483,544 L 484,543 L 486,543 L 487,542 L 489,542 L 490,541 L 494,541 L 495,540 L 499,540 L 500,539 L 524,539 L 525,540 L 529,540 L 530,541 L 533,541 L 534,542 L 537,542 L 538,543 L 540,543 L 541,544 L 543,544 L 544,545 L 545,545 L 546,546 L 547,546 L 548,547 L 549,547 L 550,548 L 551,548 L 552,549 L 553,549 L 554,550 L 555,550 L 557,552 L 558,552 L 560,554 L 561,554 L 565,558 L 566,558 L 577,569 L 577,570 L 580,573 L 580,574 L 582,576 L 582,577 L 584,579 L 584,580 L 585,581 L 585,582 L 586,583 L 586,584 L 587,585 L 587,586 L 588,587 L 588,588 L 589,589 L 589,590 L 590,591 L 590,593 L 591,594 L 591,596 L 592,597 L 592,599 L 593,600 L 593,603 L 594,604 L 594,607 L 595,608 L 595,802 L 846,802 L 846,800 L 845,799 L 845,798 L 844,797 L 844,796 L 843,795 L 843,793 L 842,792 L 842,791 L 841,790 L 841,789 L 840,788 L 840,787 L 839,786 L 839,784 L 838,783 L 838,782 L 837,781 L 837,780 L 836,779 L 836,778 L 835,777 L 835,775 L 834,774 L 834,773 L 833,772 L 833,771 L 832,770 L 832,769 L 831,768 L 831,766 L 830,765 L 830,764 L 829,763 L 829,762 L 828,761 L 828,760 L 827,759 L 827,757 L 826,756 L 826,755 L 825,754 L 825,753 L 824,752 L 824,751 L 823,750 L 823,748 L 822,747 L 822,746 L 821,745 L 821,744 L 820,743 L 820,742 L 819,741 L 819,739 L 818,738 L 818,737 L 817,736 L 817,735 L 816,734 L 816,733 L 815,732 L 815,730 L 814,729 L 814,728 L 813,727 L 813,726 L 812,725 L 812,724 L 811,723 L 811,721 L 810,720 L 810,719 L 809,718 L 809,717 L 808,716 L 808,715 L 807,714 L 807,712 L 806,711 L 806,710 L 805,709 L 805,708 L 804,707 L 804,706 L 803,705 L 803,703 L 802,702 L 802,701 L 801,700 L 801,699 L 800,698 L 800,696 L 799,695 L 799,694 L 798,693 L 798,692 L 797,691 L 797,690 L 796,689 L 796,687 L 795,686 L 795,685 L 794,684 L 794,683 L 793,682 L 793,680 L 792,679 L 792,678 L 791,677 L 791,676 L 790,675 L 790,674 L 789,673 L 789,671 L 788,670 L 788,669 L 787,668 L 787,667 L 786,666 L 786,665 L 785,664 L 785,662 L 784,661 L 784,660 L 783,659 L 783,658 L 782,657 L 782,655 L 781,654 L 781,653 L 780,652 L 780,651 L 779,650 L 779,649 L 778,648 L 778,646 L 777,645 L 777,644 L 776,643 L 776,642 L 775,641 L 775,640 L 774,639 L 774,637 L 773,636 L 773,635 L 772,634 L 772,633 L 771,632 L 771,631 L 770,630 L 770,628 L 769,627 L 769,626 L 768,625 L 768,624 L 767,623 L 767,622 L 766,621 L 766,619 L 765,618 L 765,617 L 764,616 L 764,615 L 763,614 L 763,612 L 762,611 L 762,610 L 761,609 L 761,608 L 760,607 L 760,606 L 759,605 L 759,603 L 758,602 L 758,601 L 757,600 L 757,599 L 756,598 L 756,597 L 755,596 L 755,594 L 754,593 L 754,592 L 753,591 L 753,590 L 752,589 L 752,587 L 751,586 L 751,585 L 750,584 L 750,583 L 749,582 L 749,581 L 748,580 L 748,578 L 747,577 L 747,576 L 746,575 L 746,574 L 745,573 L 745,572 L 744,571 L 744,569 L 743,568 L 743,567 L 742,566 L 742,565 L 741,564 L 741,562 L 740,561 L 740,560 L 739,559 L 739,558 L 738,557 L 738,556 L 737,555 L 737,553 L 736,552 L 736,551 L 735,550 L 735,549 L 734,548 L 734,547 L 733,546 L 733,544 L 732,543 L 732,542 L 731,541 L 731,540 L 730,539 L 730,538 L 729,537 L 729,535 L 728,534 L 728,533 L 727,532 L 727,531 L 726,530 L 726,529 L 725,528 L 725,526 L 724,525 L 724,524 L 723,523 L 723,522 L 722,521 L 722,520 L 721,519 L 721,517 L 720,516 L 720,515 L 719,514 L 719,513 L 718,512 L 718,511 L 717,510 L 717,508 L 716,507 L 716,506 L 715,505 L 715,504 L 714,503 L 714,501 L 713,500 L 713,499 L 712,498 L 712,497 L 711,496 L 711,494 L 710,493 L 710,492 L 709,491 L 709,490 L 708,489 L 708,487 L 707,486 L 707,485 L 706,484 L 706,483 L 705,482 L 705,481 L 704,480 L 704,479 L 703,478 L 703,476 L 702,475 L 702,474 L 701,473 L 701,472 L 700,471 L 700,470 L 699,469 L 699,467 L 698,466 L 698,465 L 697,464 L 697,463 L 696,462 L 696,460 L 695,459 L 695,458 L 694,457 L 694,456 L 693,455 L 693,454 L 692,453 L 692,451 L 691,450 L 691,449 L 690,448 L 690,447 L 689,446 L 689,445 L 688,444 L 688,442 L 687,441 L 687,440 L 686,439 L 686,438 L 685,437 L 685,436 L 684,435 L 684,433 L 683,432 L 683,431 L 682,430 L 682,429 L 681,428 L 681,426 L 680,425 L 680,424 L 679,423 L 679,422 L 678,421 L 678,420 L 677,419 L 677,417 L 676,416 L 676,415 L 675,414 L 675,413 L 674,412 L 674,411 L 673,410 L 673,408 L 672,407 L 672,406 L 671,405 L 671,404 L 670,403 L 670,401 L 669,400 L 669,399 L 668,398 L 668,397 L 667,396 L 667,395 L 666,394 L 666,392 L 665,391 L 665,390 L 664,389 L 664,388 L 663,387 L 663,385 L 662,384 L 662,383 L 661,382 L 661,381 L 660,380 L 660,379 L 659,378 L 659,376 L 658,375 L 658,374 L 657,373 L 657,372 L 656,371 L 656,369 L 655,368 L 655,367 L 654,366 L 654,365 L 653,364 L 653,363 L 652,362 L 652,360 L 651,359 L 651,358 L 650,357 L 650,356 L 649,355 L 649,354 L 648,353 L 648,351 L 647,350 L 647,349 L 646,348 L 646,347 L 645,346 L 645,345 L 644,344 L 644,342 L 643,341 L 643,340 L 642,339 L 642,338 L 641,337 L 641,336 L 640,335 L 640,333 L 639,332 L 639,331 L 638,330 L 638,329 L 637,328 L 637,326 L 636,325 L 636,324 L 635,323 L 635,322 L 634,321 L 634,320 L 633,319 L 633,317 L 632,316 L 632,315 L 631,314 L 631,313 L 630,312 L 630,310 L 629,309 L 629,308 L 628,307 L 628,306 L 627,305 L 627,304 L 626,303 L 626,301 L 625,300 L 625,299 L 624,298 L 624,297 L 623,296 L 623,295 L 622,294 L 622,293 L 621,292 L 621,290 L 620,289 L 620,288 L 619,287 L 619,286 L 618,285 L 618,283 L 617,282 L 617,281 L 616,280 L 616,279 L 615,278 L 615,277 L 614,276 L 614,274 L 613,273 L 613,272 L 612,271 L 612,270 L 611,269 L 611,268 L 610,267 L 610,265 L 609,264 L 609,263 L 608,262 L 608,261 L 607,260 L 607,258 L 606,257 L 606,256 L 605,255 L 605,254 L 604,253 L 604,252 L 603,251 L 603,249 L 602,248 L 602,247 L 601,246 L 601,245 L 600,244 L 600,243 L 599,242 L 599,240 L 598,239 L 598,238 L 597,237 L 597,236 L 596,235 L 596,234 L 595,233 L 595,232 L 594,231 L 594,229 L 593,228 L 593,227 L 592,226 L 592,225 L 591,224 L 591,223 L 590,222 Z" fill="black" /></svg>